<svg width="26" height="21" viewBox="0 0 26 21" fill="none" xmlns="http://www.w3.org/2000/svg">
<path d="M23.4719 1.06483H16.8863V3.40871H23.4979L23.4719 1.06483ZM22.082 17.1894C21.5824 17.6131 20.9924 17.828 20.3934 17.8045C19.9969 17.8574 19.5961 17.805 19.2161 17.6505C18.8361 17.496 18.4852 17.2429 18.1852 16.9068C17.6306 16.102 17.3418 15.0531 17.3799 13.9811H25.9789C26.0408 12.8649 25.9663 11.7432 25.758 10.6565C25.5565 9.62253 25.2039 8.64675 24.7189 7.78064C24.2306 6.9405 23.6 6.25282 22.8744 5.76922C22.067 5.25978 21.1766 5.00338 20.2765 5.02117C19.43 5.01324 18.5908 5.22237 17.8085 5.63623C17.0921 6.02271 16.443 6.5878 15.8991 7.29856C15.3566 8.02353 14.9366 8.88362 14.6651 9.8253C14.3737 10.8419 14.2285 11.9176 14.2364 13.0003C14.223 14.0985 14.3638 15.1908 14.6521 16.2253C14.8969 17.162 15.2855 18.0268 15.7951 18.7686C16.3224 19.497 16.9704 20.065 17.6916 20.431C18.4958 20.8231 19.3511 21.0149 20.2115 20.9961C21.4188 21.0443 22.6108 20.6399 23.6408 19.8325C24.6811 18.8864 25.4301 17.5045 25.758 15.926H22.8874C22.7337 16.4482 22.4509 16.8919 22.082 17.1894ZM17.6267 10.3406C17.7277 9.92617 17.8956 9.54342 18.1193 9.21703C18.343 8.89063 18.6177 8.62784 18.9256 8.44557C19.3334 8.21066 19.7775 8.09699 20.2245 8.1131C20.5475 8.0778 20.8726 8.13232 21.1775 8.27292C21.4824 8.41352 21.76 8.63687 21.9911 8.92764C22.4325 9.61906 22.7157 10.4533 22.8094 11.338H17.4188C17.4398 11.0002 17.4877 10.666 17.5617 10.3406H17.6267ZM10.7552 9.5427C11.4164 9.19039 11.9908 8.61605 12.4179 7.88038C12.8105 7.09909 13.0055 6.18203 12.9764 5.2539C13.0019 4.4075 12.8729 3.56515 12.5997 2.79365C12.3702 2.12526 12.0018 1.55027 11.5346 1.13132C11.0393 0.695746 10.4768 0.400999 9.88495 0.26691C9.18459 0.0789233 8.47024 -0.0102664 7.75469 0.000938145H0V20.913H7.92355C8.64666 20.9137 9.36688 20.7964 10.0668 20.5639C10.7302 20.3443 11.3588 19.9787 11.9243 19.4834C12.4721 18.9976 12.9182 18.3468 13.2232 17.5884C13.5608 16.7402 13.7261 15.797 13.7038 14.8455C13.7284 13.6665 13.47 12.5062 12.9634 11.5209C12.4187 10.53 11.6106 9.82682 10.6903 9.5427H10.7552ZM3.59807 3.57494H6.96233C7.27141 3.57446 7.57995 3.60783 7.88458 3.67468C8.16509 3.72788 8.43447 3.85222 8.67694 4.0404C8.9112 4.20998 9.10102 4.46447 9.22249 4.77182C9.37294 5.14039 9.44463 5.55328 9.43033 5.9687C9.45453 6.32649 9.41177 6.68652 9.30561 7.01896C9.19944 7.3514 9.03291 7.64669 8.81982 7.88038C8.35496 8.28936 7.7987 8.49359 7.23511 8.46219H3.59807V3.57494ZM9.88495 15.9427C9.7515 16.2815 9.54969 16.5684 9.30043 16.7738C9.04104 16.9803 8.75522 17.1266 8.45612 17.206C8.12366 17.3013 7.78358 17.3459 7.44294 17.339H3.54611V11.604H7.44294C8.11166 11.5665 8.77204 11.8055 9.32641 12.2855C9.57686 12.5732 9.77087 12.9322 9.89273 13.3337C10.0146 13.7351 10.0609 14.1676 10.0278 14.5962C10.063 15.0531 10.014 15.5143 9.88495 15.9427V15.9427Z" fill="white"/>
</svg>
