<svg width="26" height="21" viewBox="0 0 26 21" fill="none" xmlns="http://www.w3.org/2000/svg">
<path d="M3.09807 3.07494H3.59807H6.96201H6.96233V3.57494C7.27141 3.57446 7.57995 3.60783 7.88458 3.67468L3.09807 3.07494ZM3.09807 3.07494V3.57494V8.46219V8.96219H3.59807H7.22196C7.92458 8.99727 8.60102 8.73884 9.15009 8.25577L9.17074 8.2376L9.18928 8.21728C9.45569 7.92512 9.65613 7.56492 9.78191 7.17107C9.90521 6.78498 9.95547 6.37096 9.93081 5.96046C9.94369 5.48709 9.86091 5.01389 9.68646 4.58543C9.53611 4.20628 9.29492 3.8728 8.97708 3.64043C8.68046 3.41171 8.34373 3.25411 7.98504 3.18484L3.09807 3.07494ZM25.119 16.426C24.763 17.6527 24.1319 18.7048 23.3179 19.4503C22.3764 20.1833 21.3045 20.5394 20.2315 20.4965L20.2161 20.4959L20.2006 20.4963C19.4243 20.5132 18.6488 20.3407 17.9143 19.9833C17.2746 19.6579 16.6881 19.148 16.2038 18.4804C15.731 17.7908 15.3666 16.9817 15.1358 16.0988L15.1359 16.0988L15.1337 16.0911C14.8585 15.1033 14.7236 14.0583 14.7364 13.0064L14.7365 13.0064L14.7364 12.9967C14.7288 11.9606 14.8679 10.9326 15.1457 9.96305C15.4016 9.0759 15.7953 8.27238 16.2978 7.60029C16.8023 6.9417 17.3973 6.42654 18.0441 6.07726C18.7559 5.70105 19.5129 5.51403 20.2718 5.52115L20.2791 5.52122L20.2864 5.52107C21.0807 5.50537 21.8738 5.73042 22.6023 6.18874C23.2543 6.62454 23.8318 7.25038 24.2846 8.02843C24.7411 8.84443 25.0754 9.76816 25.2672 10.7515C25.4382 11.6444 25.5156 12.5625 25.4974 13.4811H17.3799H16.8973L16.8802 13.9634C16.8387 15.1316 17.1519 16.2887 17.7735 17.1906L17.7913 17.2164L17.8122 17.2398C18.1579 17.6271 18.5704 17.9278 19.0278 18.1137C19.4728 18.2946 19.9459 18.3609 20.4168 18.3054C21.1357 18.3225 21.8276 18.059 22.4008 17.5747C22.7647 17.2796 23.0493 16.8807 23.2397 16.426H25.119ZM10.5201 9.10145L10.6458 9.33741L10.5428 10.0205C11.3161 10.2592 12.0281 10.8606 12.522 11.7557C12.9861 12.6611 13.2269 13.7361 13.204 14.8351L13.2037 14.8462L13.204 14.8572C13.2248 15.744 13.0705 16.6199 12.759 17.4027C12.4797 18.0967 12.0764 18.6798 11.5938 19.1082C11.075 19.5624 10.5046 19.8923 9.90966 20.0893L9.90922 20.0894C9.25924 20.3053 8.59233 20.4137 7.92401 20.413H7.92355H0.5V0.500938H7.75469V0.500999L7.76252 0.500877C8.43106 0.490408 9.09917 0.573694 9.75534 0.749817L9.76485 0.752372L9.77447 0.75455C10.2771 0.868444 10.7648 1.12074 11.2026 1.50517C11.5978 1.86018 11.9218 2.35885 12.1268 2.95603L12.1268 2.95604L12.1284 2.96054C12.3802 3.67167 12.5003 4.45217 12.4767 5.23886L12.4762 5.2542L12.4767 5.26954C12.5031 6.11436 12.3263 6.94295 11.9779 7.64242C11.592 8.30224 11.0846 8.80063 10.5201 9.10145ZM18.676 8.01231L18.676 8.01228L18.6709 8.0153C18.2939 8.23845 17.9674 8.55427 17.7069 8.93434C17.5185 9.20922 17.3663 9.51509 17.2533 9.84062H17.1626L17.0742 10.2298C16.9941 10.5818 16.9425 10.9427 16.9198 11.307L16.8867 11.838H17.4188H22.8094H23.3652L23.3067 11.2853C23.2055 10.3303 22.899 9.42071 22.4126 8.65861L22.3986 8.63678L22.3825 8.61651C22.1079 8.27111 21.7701 7.99557 21.3868 7.81886C21.0137 7.64681 20.6108 7.57482 20.2068 7.61236C19.6735 7.59992 19.15 7.73927 18.676 8.01231ZM9.61182 17.165L9.61187 17.1651L9.61841 17.1597C9.94112 16.8938 10.1896 16.5334 10.3502 16.1259L9.88495 15.9427L10.3637 16.0869C10.5074 15.61 10.5633 15.1006 10.5291 14.5962C10.5612 14.1197 10.5078 13.6387 10.3712 13.1884C10.2309 12.7263 10.0047 12.3032 9.70349 11.9572L9.68036 11.9306L9.65372 11.9076C9.01523 11.3547 8.23567 11.0628 7.42959 11.104H3.54611H3.04611V11.604V17.339V17.839H3.54611H7.43811C7.82612 17.8463 8.21266 17.7954 8.58927 17.688C8.95795 17.5893 9.30367 17.4103 9.61182 17.165ZM17.3863 1.56483H22.9774L22.9923 2.90871H17.3863V1.56483Z" fill="black" stroke="white"/>
</svg>
