<svg width="200" height="200" viewBox="0 0 200 200" fill="none" xmlns="http://www.w3.org/2000/svg">
<path d="M0 39C0 17.4609 17.4609 0 39 0H161C182.539 0 200 17.4609 200 39V161C200 182.539 182.539 200 161 200H39C17.4609 200 0 182.539 0 161V39Z" fill="#161B22"/>
<path fill-rule="evenodd" clip-rule="evenodd" d="M56.2398 55H31L76.6259 154H101.866L56.2398 55ZM102.919 55H101.866H77.5772H76.6507L69.8618 66.6974H82.99L123.387 154H148.729L102.919 55ZM146.998 88.9509C156.388 88.9509 164 81.3508 164 71.9755C164 62.6002 156.388 55 146.998 55C137.608 55 129.996 62.6002 129.996 71.9755C129.996 81.3508 137.608 88.9509 146.998 88.9509Z" fill="white"/>
</svg>
