<svg width="25" height="25" viewBox="0 0 25 25" fill="none" xmlns="http://www.w3.org/2000/svg">
<path d="M0 4.875C0 2.18261 2.18261 0 4.875 0H20.125C22.8174 0 25 2.18261 25 4.875V20.125C25 22.8174 22.8174 25 20.125 25H4.875C2.18261 25 0 22.8174 0 20.125V4.875Z" fill="#161B22"/>
<path fill-rule="evenodd" clip-rule="evenodd" d="M7.02997 6.875H3.875L9.57824 19.25H12.7332L7.02997 6.875ZM12.8649 6.875H12.7332H9.69715H9.58134L8.73273 8.33718H10.3737L15.4234 19.25H18.5911L12.8649 6.875ZM18.3748 11.1189C19.5485 11.1189 20.5 10.1689 20.5 8.99694C20.5 7.82503 19.5485 6.875 18.3748 6.875C17.201 6.875 16.2495 7.82503 16.2495 8.99694C16.2495 10.1689 17.201 11.1189 18.3748 11.1189Z" fill="white"/>
</svg>
