<svg width="25" height="23" viewBox="0 0 25 23" fill="none" xmlns="http://www.w3.org/2000/svg">
<path d="M24.165 0.542187C23.8415 0.271063 23.451 0.0933713 23.0352 0.0280237C22.6193 -0.037324 22.1936 0.0121172 21.8035 0.171086L1.43829 8.45291C1.00276 8.63339 0.632035 8.94303 0.375305 9.3407C0.118575 9.73838 -0.0120146 10.2053 0.000869301 10.6795C0.0137532 11.1537 0.169501 11.6127 0.447441 11.9956C0.725381 12.3786 1.11237 12.6673 1.55704 12.8235L5.67646 14.2666L7.97255 21.9146C8.00375 22.0168 8.04903 22.114 8.10707 22.2035C8.11588 22.2173 8.1283 22.2275 8.13767 22.2408C8.20472 22.3351 8.28575 22.4184 8.37793 22.4878C8.40415 22.5079 8.42925 22.5268 8.45728 22.5447C8.56516 22.6168 8.68463 22.6695 8.81039 22.7005L8.82384 22.7016L8.83147 22.7049C8.90708 22.7204 8.98403 22.7282 9.06119 22.7284C9.06861 22.7284 9.0752 22.7248 9.08255 22.7247C9.19899 22.7226 9.31441 22.7024 9.42471 22.6648C9.45037 22.656 9.47236 22.6412 9.49726 22.6306C9.57951 22.5963 9.65743 22.5523 9.72941 22.4995C9.78705 22.4506 9.84471 22.4017 9.90239 22.3528L12.9731 18.9379L17.5531 22.5115C17.9563 22.8277 18.4526 22.9996 18.9636 23C19.499 22.9993 20.018 22.8132 20.4334 22.4729C20.8488 22.1327 21.1355 21.6589 21.2453 21.131L24.953 2.79793C25.037 2.38531 25.0081 1.95744 24.8693 1.56011C24.7305 1.16277 24.4871 0.810918 24.165 0.542187V0.542187ZM9.51179 14.631C9.35422 14.7891 9.24651 14.9905 9.20217 15.21L8.85044 16.9316L7.95944 13.9635L12.5792 11.5403L9.51179 14.631ZM18.9459 20.7018L13.5336 16.4787C13.3071 16.3025 13.0231 16.2186 12.738 16.2439C12.453 16.2692 12.1878 16.4017 11.9954 16.6151L11.012 17.7084L11.3595 16.007L19.4086 7.89956C19.6007 7.7063 19.7178 7.45012 19.7386 7.17743C19.7594 6.90474 19.6825 6.63357 19.5219 6.41304C19.3613 6.19251 19.1276 6.0372 18.8632 5.97524C18.5987 5.91328 18.321 5.94878 18.0802 6.0753L6.52848 12.1334L2.29614 10.5734L22.7268 2.34071L18.9459 20.7018Z" fill="white"/>
</svg>
