<svg width="25" height="23" viewBox="0 0 25 23" fill="none" xmlns="http://www.w3.org/2000/svg">
<path d="M19.2732 21.5914L18.6383 21.096L13.2265 16.8733C13.0995 16.7745 12.9409 16.7279 12.7822 16.742C12.6236 16.756 12.4754 16.8297 12.3672 16.9495L19.2732 21.5914ZM19.2732 21.5914L19.4356 20.8026L23.2165 2.44156L23.4045 1.52855L22.5399 1.87695L2.10926 10.1096L0.906799 10.5942L2.12321 11.0425L6.35555 12.6026L6.56397 12.6794L6.7607 12.5762L18.3125 6.5181L18.3128 6.51789C18.4472 6.44726 18.6019 6.42758 18.7491 6.46206C18.8964 6.49656 19.0273 6.58322 19.1177 6.70736C19.2082 6.83159 19.2518 6.98489 19.24 7.13943C19.2282 7.29396 19.1619 7.43849 19.054 7.54704L19.0538 7.54728L11.0047 15.6547L10.8995 15.7607L10.8696 15.9069L10.5221 17.6084L10.1541 19.4098L11.3837 18.0428L12.3668 16.9499L19.2732 21.5914ZM21.9918 0.634252L21.9921 0.634128C22.2981 0.509472 22.6317 0.470757 22.9575 0.521962C23.2834 0.57317 23.5898 0.71246 23.8439 0.925425L24.165 0.542187L23.8447 0.926071C24.097 1.13665 24.2882 1.41271 24.3972 1.72499C24.5063 2.03728 24.5291 2.37371 24.463 2.69816L24.4629 2.69881L20.7558 21.0292C20.7557 21.0296 20.7556 21.03 20.7555 21.0303C20.6687 21.4463 20.4428 21.8189 20.1165 22.0861C19.7901 22.3535 19.383 22.4994 18.9634 22.5C18.5647 22.4995 18.177 22.3654 17.8616 22.1181L17.8607 22.1173L13.2807 18.5437L12.9131 18.2569L12.6013 18.6036L9.5532 21.9933L9.42144 22.1051C9.38483 22.1306 9.34568 22.1521 9.30465 22.1692L9.30465 22.1692L9.30106 22.1707C9.28126 22.1792 9.26475 22.1873 9.25359 22.1929L9.24423 22.1977C9.18891 22.2146 9.13154 22.2237 9.07376 22.2247L9.07321 22.2247C9.05707 22.225 9.04215 22.2261 9.02873 22.2275C9.01089 22.2265 8.99311 22.2249 8.97541 22.2225L8.94712 22.2103L8.89773 22.2061C8.84023 22.1885 8.78543 22.1626 8.73508 22.1289L8.73514 22.1288L8.72621 22.1231C8.71774 22.1177 8.7072 22.1102 8.68237 22.0912L8.67877 22.0884C8.62779 22.05 8.58282 22.0039 8.54549 21.9516C8.53317 21.9342 8.52172 21.92 8.51315 21.9098C8.48702 21.8658 8.46616 21.8188 8.45105 21.7696C8.45095 21.7693 8.45084 21.7689 8.45074 21.7686L6.15535 14.1228L6.08212 13.8789L5.84177 13.7947L1.72277 12.3518C1.72269 12.3518 1.72261 12.3517 1.72253 12.3517C1.37425 12.2293 1.07054 12.0029 0.852091 11.7019C0.633561 11.4008 0.510836 11.0395 0.500685 10.6659C0.490533 10.2923 0.593456 9.92466 0.795374 9.61189C0.996985 9.29959 1.2876 9.05693 1.62829 8.9154C1.62877 8.9152 1.62924 8.91501 1.62971 8.91481L21.9918 0.634252ZM8.49288 21.8868C8.49196 21.8858 8.49256 21.8865 8.49367 21.8877L8.49288 21.8868ZM8.52799 21.9336L8.52656 21.9314C8.52703 21.9322 8.52751 21.9329 8.52799 21.9336ZM9.86592 14.984L9.86668 14.9832L12.9341 11.8925L12.3469 11.0975L7.7272 13.5207L7.36199 13.7122L7.48056 14.1072L8.37156 17.0753L9.34033 17.0317L9.69205 15.3101L9.69227 15.309C9.71726 15.1854 9.77786 15.0723 9.86592 14.984Z" fill="black" stroke="white"/>
</svg>
