<svg width="25" height="25" viewBox="0 0 25 25" fill="none" xmlns="http://www.w3.org/2000/svg">
<path d="M16.7541 14.2378C16.4222 13.8789 16.0495 13.56 15.6435 13.2877C17.2818 12.021 18.4299 10.2251 18.892 8.20645C18.9262 8.06057 18.9311 7.90938 18.9065 7.76159C18.882 7.61379 18.8285 7.47231 18.7491 7.34528C18.6696 7.21824 18.5659 7.10817 18.4437 7.02139C18.3216 6.93461 18.1835 6.87284 18.0374 6.83963C17.8914 6.80642 17.7401 6.80242 17.5925 6.82787C17.4449 6.85332 17.3037 6.90771 17.1772 6.98792C17.0506 7.06813 16.9412 7.17257 16.8552 7.29522C16.7691 7.41788 16.7082 7.55634 16.6759 7.70264C16.4607 8.64691 16.0421 9.53288 15.4492 10.2988C14.8564 11.0646 14.1037 11.692 13.2435 12.137V7.95682C13.2365 7.8732 13.2198 7.79067 13.1939 7.71088C13.1863 7.64517 13.1732 7.58023 13.1547 7.51675C13.1062 7.4134 13.0423 7.31803 12.9651 7.2339C12.9448 7.20976 12.9345 7.17793 12.9123 7.1556C12.8291 7.07875 12.7348 7.01477 12.6327 6.96576C12.6037 6.9503 12.5821 6.92415 12.5517 6.91122C12.4646 6.88221 12.3744 6.86365 12.283 6.85593C12.2265 6.83942 12.1689 6.82756 12.1105 6.82049L11.367 6.81818H11.3636C11.0978 6.81691 10.84 6.90933 10.6355 7.07921C10.431 7.24909 10.2929 7.48557 10.2455 7.74714C10.198 8.0087 10.2442 8.27864 10.3759 8.50955C10.5076 8.74046 10.7165 8.91758 10.9658 9.00983V14.5674C9.16504 12.6981 7.97264 10.3273 7.54561 7.76705C7.52069 7.61993 7.46704 7.47916 7.38771 7.35278C7.30839 7.2264 7.20495 7.11688 7.0833 7.03048C6.96165 6.94407 6.82418 6.88247 6.67872 6.8492C6.53327 6.81592 6.38268 6.81162 6.23557 6.83655C6.08845 6.86147 5.94768 6.91512 5.8213 6.99444C5.69492 7.07377 5.5854 7.17721 5.499 7.29886C5.41259 7.4205 5.351 7.55798 5.31772 7.70344C5.28445 7.84889 5.28015 7.99947 5.30507 8.14659C5.96915 12.104 8.17596 15.6365 11.4413 17.9688C11.4879 17.9967 11.5364 18.0212 11.5866 18.042C11.6259 18.0652 11.6667 18.0857 11.7087 18.1036C11.8356 18.1543 11.9706 18.1816 12.1072 18.1841C12.2743 18.182 12.4389 18.1425 12.5888 18.0683C12.6001 18.063 12.6131 18.0655 12.6243 18.0598C12.7247 18.0075 12.8167 17.9403 12.8971 17.8606C12.9133 17.8449 12.9241 17.8255 12.9394 17.8089C13.0127 17.7283 13.0739 17.6375 13.1211 17.5393C13.1369 17.5067 13.1513 17.4756 13.164 17.4413C13.214 17.316 13.2409 17.1826 13.2435 17.0477L13.2441 14.6318C13.9482 14.8386 14.5826 15.2333 15.079 15.7737L16.9517 17.8156C17.0524 17.926 17.1739 18.0154 17.3093 18.0787C17.4446 18.142 17.5911 18.178 17.7404 18.1846C17.8896 18.1912 18.0388 18.1683 18.1792 18.1172C18.3196 18.0661 18.4485 17.9879 18.5586 17.8869C18.6688 17.7859 18.7579 17.6642 18.8209 17.5287C18.8839 17.3932 18.9195 17.2466 18.9258 17.0973C18.9321 16.9481 18.9089 16.799 18.8575 16.6587C18.8061 16.5184 18.7275 16.3896 18.6263 16.2798L16.7541 14.2378ZM15.9918 0H9.01989C2.02303 0 0 2.02082 0 9.00768V15.9801C0 22.977 2.02026 25 9.00824 25H15.9801C22.977 25 25 22.9792 25 15.9923V9.01989C25 2.02303 22.9797 0 15.9918 0ZM22.7273 15.9923C22.7273 21.7196 21.7185 22.7273 15.9801 22.7273H9.00824C3.27981 22.7273 2.27273 21.7185 2.27273 15.9801V9.00768C2.27273 3.28036 3.28148 2.27273 9.01989 2.27273H15.9918C21.7202 2.27273 22.7273 3.28148 22.7273 9.01989V15.9923Z" fill="white"/>
</svg>
