<svg width="25" height="25" viewBox="0 0 25 25" fill="none" xmlns="http://www.w3.org/2000/svg">
<path d="M14.7888 13.3165L15.3376 12.8921C16.8844 11.6962 17.9684 10.0007 18.4047 8.09488L18.4052 8.09261C18.4243 8.01092 18.427 7.92625 18.4133 7.84348C18.3996 7.76072 18.3696 7.68149 18.3251 7.61035C18.2806 7.53921 18.2225 7.47757 18.1541 7.42898C18.0857 7.38038 18.0084 7.34579 17.9266 7.32719C17.8448 7.30859 17.7601 7.30635 17.6774 7.3206C17.5948 7.33485 17.5157 7.36531 17.4448 7.41023C17.374 7.45515 17.3127 7.51363 17.2645 7.58232C17.2164 7.65101 17.1822 7.72855 17.1641 7.81047L17.1634 7.81376C16.932 8.82893 16.482 9.78142 15.8446 10.6048C15.2073 11.4282 14.3981 12.1026 13.4733 12.5811L12.7435 12.9587V12.137V7.98097C12.739 7.9418 12.7306 7.90316 12.7184 7.86564L12.7028 7.81777L12.6971 7.76775C12.6943 7.74321 12.6901 7.71884 12.6846 7.69478C12.6604 7.65044 12.6308 7.60915 12.5966 7.57185L12.5894 7.56402L12.5826 7.5559C12.5614 7.53068 12.5451 7.5072 12.5335 7.48929C12.4973 7.46092 12.458 7.43653 12.4164 7.41657L12.4068 7.41194L12.3973 7.4069C12.3726 7.39371 12.3516 7.38036 12.3351 7.36905C12.3042 7.36182 12.2727 7.35684 12.2409 7.35416L12.1908 7.34993L12.1425 7.3358C12.1203 7.3293 12.0978 7.32415 12.0749 7.32038L11.367 7.31818H11.3663H11.3636H11.3612C11.2129 7.31747 11.0691 7.36903 10.955 7.4638C10.841 7.55858 10.7639 7.69051 10.7374 7.83644C10.7109 7.98237 10.7367 8.13296 10.8102 8.26179C10.8837 8.39061 11.0002 8.48943 11.1393 8.5409L11.4658 8.6617V9.00983V14.5674V15.8072L10.6057 14.9143C8.73506 12.9725 7.49632 10.5097 7.05257 7.85013C7.03858 7.76791 7.00856 7.68923 6.96422 7.61859C6.9198 7.54782 6.86188 7.4865 6.79377 7.43811C6.72565 7.38973 6.64867 7.35524 6.56722 7.33661C6.48577 7.31798 6.40145 7.31557 6.31908 7.32952C6.2367 7.34348 6.15788 7.37352 6.08711 7.41794C6.01634 7.46235 5.95502 7.52028 5.90664 7.58839C5.85825 7.65651 5.82376 7.73349 5.80513 7.81494C5.7865 7.89638 5.78409 7.9807 5.79804 8.06308L5.79817 8.06384C6.43907 11.8832 8.56592 15.2931 11.7133 17.5486C11.7344 17.5605 11.7563 17.5711 11.7787 17.5804L11.8103 17.5936L11.8398 17.6109C11.8591 17.6223 11.8791 17.6325 11.8996 17.6415C11.9664 17.6674 12.0371 17.6818 12.1086 17.684C12.1984 17.6818 12.2866 17.66 12.3671 17.6202L12.3752 17.6162L12.3752 17.6162C12.3968 17.6061 12.4172 17.5982 12.4359 17.592C12.4694 17.5711 12.5008 17.5471 12.5298 17.5202L12.5335 17.5154C12.5418 17.5046 12.5545 17.4887 12.5708 17.471L14.7888 13.3165ZM14.7888 13.3165L15.3649 13.7029M14.7888 13.3165L15.3649 13.7029M15.3649 13.7029C15.7382 13.9534 16.081 14.2465 16.3863 14.5765C16.3865 14.5768 16.3868 14.577 16.3871 14.5773L18.2577 16.6177L18.2585 16.6186C18.3152 16.6801 18.3592 16.7522 18.388 16.8307C18.4168 16.9093 18.4298 16.9927 18.4263 17.0763C18.4228 17.1599 18.4028 17.242 18.3675 17.3178C18.3322 17.3937 18.2823 17.4618 18.2207 17.5184C18.159 17.5749 18.0868 17.6188 18.0082 17.6474C17.9296 17.676 17.8461 17.6888 17.7625 17.6851C17.679 17.6814 17.5969 17.6612 17.5212 17.6258C17.4454 17.5903 17.3773 17.5403 17.3209 17.4785L17.3202 17.4777L15.4475 15.4358L15.4472 15.4355C14.8893 14.8281 14.1763 14.3844 13.3849 14.1521L12.7442 13.9639M15.3649 13.7029L12.7442 13.9639M12.7442 13.9639L12.7441 14.6317M12.7442 13.9639L12.7441 14.6317M12.7441 14.6317L12.7435 17.0421L12.7441 14.6317ZM12.1105 6.82049L11.367 6.81818H11.3636C11.0978 6.81691 10.84 6.90933 10.6355 7.07921C10.431 7.24909 10.2929 7.48557 10.2455 7.74714C10.198 8.0087 10.2442 8.27864 10.3759 8.50955C10.5076 8.74046 10.7165 8.91758 10.9658 9.00983L12.1105 6.82049ZM12.5447 17.568L12.5446 17.5681L12.5447 17.568ZM9.01989 0.5H15.9918C19.4739 0.5 21.538 1.01328 22.7626 2.23945C23.9874 3.46582 24.5 5.53311 24.5 9.01989V15.9923C24.5 19.4739 23.9867 21.5379 22.7606 22.7624C21.5342 23.9872 19.4669 24.5 15.9801 24.5H9.00824C5.5261 24.5 3.46198 23.9867 2.23741 22.7606C1.01264 21.5342 0.5 19.4669 0.5 15.9801V9.00768C0.5 5.52612 1.01327 3.46212 2.23945 2.23755C3.46583 1.01277 5.53314 0.5 9.01989 0.5ZM15.9801 23.2273C17.4221 23.2273 18.6024 23.1647 19.5552 22.9702C20.5134 22.7747 21.281 22.4382 21.8588 21.8614C22.4367 21.2845 22.7739 20.5179 22.9698 19.5612C23.1646 18.6098 23.2273 17.4315 23.2273 15.9923V9.01989C23.2273 7.57795 23.1647 6.39761 22.9703 5.44481C22.7748 4.48664 22.4384 3.71897 21.8615 3.14115C21.2846 2.56325 20.518 2.22605 19.5611 2.03017C18.6097 1.8354 17.4312 1.77273 15.9918 1.77273H9.01989C7.57794 1.77273 6.3976 1.83534 5.44479 2.02975C4.48661 2.22527 3.71896 2.56179 3.14115 3.1386C2.56326 3.7155 2.22605 4.48206 2.03017 5.43885C1.8354 6.39015 1.77273 7.56849 1.77273 9.00768V15.9801C1.77273 17.422 1.8353 18.6024 2.02968 19.5552C2.22516 20.5134 2.56164 21.281 3.13846 21.8588C3.71537 22.4367 4.48198 22.774 5.43886 22.9698C6.39026 23.1646 7.56877 23.2273 9.00824 23.2273H15.9801Z" fill="black" stroke="white"/>
</svg>
