<svg width="25" height="25" viewBox="0 0 25 25" fill="none" xmlns="http://www.w3.org/2000/svg">
<path d="M14.1003 16.9396C14.6303 17.1067 15.1932 17.1418 15.7399 17.0419L15.7399 17.0419L15.7464 17.0406C16.1275 16.9657 16.4886 16.8117 16.8064 16.5884C17.1242 16.3652 17.3916 16.0777 17.5913 15.7446L17.6625 15.6259V15.5316C17.7785 15.1642 17.8064 14.7742 17.7433 14.3933L17.7269 14.2947L17.674 14.21C17.5742 14.0502 17.4328 13.9622 17.3413 13.9114C17.2863 13.8808 17.2096 13.8437 17.1399 13.8099C17.1069 13.7939 17.0754 13.7787 17.0486 13.7653C16.8342 13.6581 15.6937 13.1058 15.4631 13.0193C15.4604 13.0183 15.4577 13.0173 15.4549 13.0163C15.364 12.9821 15.1728 12.9102 14.9614 12.9345C14.6903 12.9658 14.4998 13.1301 14.3715 13.3226C14.3092 13.4161 14.1736 13.5959 14.0328 13.7704C13.9637 13.8559 13.8975 13.9351 13.8429 13.9971C13.8322 14.0093 13.8226 14.0199 13.8141 14.0293C13.8131 14.0288 13.8121 14.0283 13.8111 14.0278L13.7932 14.0188L13.7746 14.0113C13.1703 13.7675 12.6119 13.4228 12.1232 12.9919C11.7034 12.6013 11.3377 12.1567 11.0356 11.6697C11.1234 11.5755 11.2202 11.455 11.2978 11.3586C11.3207 11.3301 11.3419 11.3037 11.3607 11.2806C11.4827 11.1338 11.5822 10.9697 11.6558 10.7936C11.7156 10.6689 11.7467 10.5323 11.7467 10.3937C11.7467 10.2471 11.7119 10.1026 11.645 9.97206L11.6412 9.96455L11.6371 9.95718C11.6374 9.95781 11.6362 9.95492 11.6332 9.94814C11.6237 9.92656 11.5968 9.86559 11.55 9.75388C11.4959 9.62491 11.4274 9.45867 11.3546 9.2816L11.3461 9.26102C11.2048 8.91773 11.0458 8.5313 10.9557 8.33171C10.8426 8.08119 10.6923 7.88173 10.4814 7.76286C10.2794 7.64899 10.0856 7.6497 10.0096 7.64998C10.0062 7.64999 10.003 7.65 10 7.65H9.65V7.64997L9.64425 7.65003C9.46061 7.65215 9.27945 7.69278 9.11249 7.7693C8.95317 7.84232 8.81016 7.94648 8.69185 8.07554C8.39291 8.36054 8.15598 8.70425 7.99599 9.08519C7.83319 9.4728 7.75368 9.8903 7.76261 10.3106L7.76296 10.3268L7.76435 10.343C7.84489 11.2767 8.19422 12.1669 8.76989 12.9061C9.77887 14.4076 11.1587 15.623 12.7758 16.4344L12.7851 16.4391L12.7946 16.4434C13.2195 16.6348 13.6555 16.8005 14.1003 16.9396ZM14.1003 16.9396C14.1 16.9395 14.0998 16.9394 14.0996 16.9393L14.25 16.4625M14.1003 16.9396C14.1004 16.9396 14.1006 16.9397 14.1008 16.9397L14.25 16.4625M14.25 16.4625C13.8242 16.3294 13.4068 16.1708 13 15.9875L17.1625 15.4875C16.9988 15.7606 16.7796 15.9963 16.519 16.1793C16.2585 16.3623 15.9624 16.4886 15.65 16.55C15.1832 16.6353 14.7026 16.6053 14.25 16.4625ZM23.9621 2.94206L23.962 2.94209L23.9653 2.94855C24.1565 3.3311 24.2964 3.73718 24.3813 4.15628C24.4468 4.66654 24.4864 5.17979 24.5 5.69405V5.69412V5.69546V5.69679V5.69813V5.69947V5.70081V5.70215V5.7035V5.70485V5.7062V5.70756V5.70891V5.71027V5.71163V5.713V5.71436V5.71573V5.7171V5.71847V5.71985V5.72122V5.7226V5.72398V5.72537V5.72675V5.72814V5.72953V5.73092V5.73231V5.73371V5.73511V5.73651V5.73791V5.73931V5.74072V5.74213V5.74354V5.74495V5.74636V5.74778V5.7492V5.75062V5.75204V5.75346V5.75488V5.75631V5.75774V5.75917V5.7606V5.76204V5.76347V5.76491V5.76635V5.76779V5.76923V5.77067V5.77212V5.77357V5.77501V5.77646V5.77792V5.77937V5.78083V5.78228V5.78374V5.7852V5.78666V5.78812V5.78959V5.79105V5.79252V5.79399V5.79546V5.79693V5.7984V5.79987V5.80135V5.80282V5.8043V5.80578V5.80726V5.80874V5.81023V5.81171V5.81319V5.81468V5.81617V5.81766V5.81915V5.82064V5.82213V5.82362V5.82511V5.82661V5.82811V5.8296V5.8311V5.8326V5.8341V5.8356V5.8371V5.83861V5.84011V5.84162V5.84312V5.84463V5.84613V5.84764V5.84915V5.85066V5.85217V5.85368V5.8552V5.85671V5.85822V5.85974V5.86125V5.86277V5.86428V5.8658V5.86732V5.86884V5.87036V5.87188V5.8734V5.87492V5.87644V5.87796V5.87948V5.881V5.88253V5.88405V5.88557V5.8871V5.88862V5.89015V5.89167V5.8932V5.89473V5.89625V5.89778V5.89931V5.90084V5.90236V5.90389V5.90542V5.90695V5.90848V5.91001V5.91154V5.91307V5.9146V5.91613V5.91766V5.91919V5.92072V5.92225V5.92378V5.92531V5.92684V5.92837V5.9299V5.93143V5.93296V5.93449V5.93602V5.93755V5.93908V5.94061V5.94214V5.94367V5.9452V5.94672V5.94825V5.94978V5.95131V5.95284V5.95437V5.95589V5.95742V5.95895V5.96048V5.962V5.96353V5.96505V5.96658V5.9681V5.96963V5.97115V5.97268V5.9742V5.97572V5.97725V5.97877V5.98029V5.98181V5.98333V5.98485V5.98637V5.98789V5.9894V5.99092V5.99244V5.99395V5.99547V5.99698V5.9985V6.00001V6.00152V6.00303V6.00454V6.00605V6.00756V6.00907V6.01058V6.01209V6.01359V6.0151V6.0166V6.0181V6.01961V6.02111V6.02261V6.02411V6.0256V6.0271V6.0286V6.03009V6.03159V6.03308V6.03457V6.03606V6.03755V6.03904V6.04053V6.04202V6.0435V6.04498V6.04647V6.04795V6.04943V6.05091V6.05239V6.05386V6.05534V6.05681V6.05828V6.05975V6.06122V6.06269V6.06416V6.06563V6.06709V6.06855V6.07001V6.07147V6.07293V6.07439V6.07584V6.0773V6.07875V6.0802V6.08165V6.0831V6.08454V6.08599V6.08743V6.08887V6.09031V6.09175V6.09318V6.09461V6.09605V6.09748V6.09891V6.10033V6.10176V6.10318V6.1046V6.10602V6.10744V6.10886V6.11027V6.11168V6.11309V6.1145V6.11591V6.11731V6.11871V6.12011V6.12151V6.12291V6.1243V6.12569V6.12708V6.12847V6.12986V6.13124V6.13262V6.134V6.13538V6.13675V6.13813V6.1395V6.14086V6.14223V6.14359V6.14496V6.14631V6.14767V6.14903V6.15038V6.15173V6.15307V6.15442V6.15576V6.1571V6.15844V6.15977V6.16111V6.16244V6.16376V6.16509V6.16641V6.16773V6.16905V6.17036V6.17168V6.17299V6.17429V6.1756V6.1769V6.1782V6.17949V6.18079V6.18208V6.18337V6.18465V6.18594V6.18722V6.18849V6.18977V6.19104V6.19231V6.19357V6.19483V6.19609V6.19735V6.19861V6.19986V6.2011V6.20235V6.20359V6.20483V6.20607V6.2073V6.20853V6.20976V6.21098V6.2122V6.21342V6.21463V6.21584V6.21705V6.21826V6.21946V6.22066V6.22185V6.22304V6.22423V6.22542V6.2266V6.22778V6.22895V6.23013V6.2313V6.23246V6.23362V6.23478V6.23594V6.23709V6.23824V6.23938V6.24052V6.24166V6.2428V6.24393V6.24505V6.24618V6.2473V6.24842V6.24953V6.25064V6.25174V6.25285V6.25394V6.25504V6.25613V6.25722V6.2583V6.25938V6.26046V6.26153V6.2626V6.26366V6.26472V6.26578V6.26683V6.26788V6.26893V6.26997V6.27101V6.27204V6.27307V6.2741V6.27512V6.27614V6.27715V6.27816V6.27917V6.28017V6.28117V6.28216V6.28315V6.28413V6.28512V6.28609V6.28707V6.28803V6.289V6.28996V6.29091V6.29187V6.29281V6.29376V6.2947V6.29563V6.29656V6.29749V6.29841V6.29933V6.30024V6.30115V6.30205V6.30295V6.30385V6.30474V6.30562V6.3065V6.30738V6.30825V6.30912V6.30999V6.31084V6.3117V6.31255V6.31339V6.31423V6.31507V6.3159V6.31673V6.31755V6.31837V6.31918V6.31999V6.32079V6.32159V6.32238V6.32317V6.32395V6.32473V6.32551V6.32627V6.32704V6.3278V6.32855V6.3293V6.33005V6.33079V6.33152V6.33225V6.33297V6.33369V6.33441V6.33512V6.33582V6.33652V6.33721V6.3379V6.33859V6.33927V6.33994V6.34061V6.34127V6.34193V6.34258V6.34323V6.34387V6.34451V6.34514V6.34577V6.34639V6.347V6.34761V6.34822V6.34882V6.34941V6.35V18.65V18.6508V18.6516V18.6524V18.6533V18.6541V18.6549V18.6557V18.6566V18.6574V18.6582V18.6591V18.6599V18.6608V18.6616V18.6625V18.6634V18.6642V18.6651V18.666V18.6668V18.6677V18.6686V18.6695V18.6704V18.6713V18.6722V18.6731V18.674V18.6749V18.6758V18.6767V18.6776V18.6786V18.6795V18.6804V18.6813V18.6823V18.6832V18.6842V18.6851V18.686V18.687V18.6879V18.6889V18.6899V18.6908V18.6918V18.6928V18.6937V18.6947V18.6957V18.6967V18.6977V18.6987V18.6997V18.7007V18.7017V18.7027V18.7037V18.7047V18.7057V18.7067V18.7077V18.7087V18.7098V18.7108V18.7118V18.7129V18.7139V18.7149V18.716V18.717V18.7181V18.7191V18.7202V18.7212V18.7223V18.7234V18.7244V18.7255V18.7266V18.7276V18.7287V18.7298V18.7309V18.732V18.7331V18.7342V18.7353V18.7364V18.7375V18.7386V18.7397V18.7408V18.7419V18.743V18.7441V18.7452V18.7464V18.7475V18.7486V18.7497V18.7509V18.752V18.7532V18.7543V18.7554V18.7566V18.7577V18.7589V18.76V18.7612V18.7624V18.7635V18.7647V18.7659V18.767V18.7682V18.7694V18.7706V18.7717V18.7729V18.7741V18.7753V18.7765V18.7777V18.7789V18.7801V18.7813V18.7825V18.7837V18.7849V18.7861V18.7873V18.7885V18.7897V18.791V18.7922V18.7934V18.7946V18.7959V18.7971V18.7983V18.7996V18.8008V18.802V18.8033V18.8045V18.8058V18.807V18.8083V18.8095V18.8108V18.8121V18.8133V18.8146V18.8158V18.8171V18.8184V18.8196V18.8209V18.8222V18.8235V18.8248V18.826V18.8273V18.8286V18.8299V18.8312V18.8325V18.8338V18.8351V18.8364V18.8377V18.839V18.8403V18.8416V18.8429V18.8442V18.8455V18.8468V18.8481V18.8494V18.8508V18.8521V18.8534V18.8547V18.8561V18.8574V18.8587V18.86V18.8614V18.8627V18.864V18.8654V18.8667V18.8681V18.8694V18.8708V18.8721V18.8735V18.8748V18.8762V18.8775V18.8789V18.8802V18.8816V18.8829V18.8843V18.8857V18.887V18.8884V18.8898V18.8911V18.8925V18.8939V18.8953V18.8966V18.898V18.8994V18.9008V18.9022V18.9036V18.9049V18.9063V18.9077V18.9091V18.9105V18.9119V18.9133V18.9147V18.9161V18.9175V18.9189V18.9203V18.9217V18.9231V18.9245V18.9259V18.9273V18.9287V18.9301V18.9315V18.9329V18.9344V18.9358V18.9372V18.9386V18.94V18.9415V18.9429V18.9443V18.9457V18.9471V18.9486V18.95V18.9514V18.9529V18.9543V18.9557V18.9572V18.9586V18.96V18.9615V18.9629V18.9643V18.9658V18.9672V18.9687V18.9701V18.9715V18.973V18.9744V18.9759V18.9773V18.9788V18.9802V18.9817V18.9831V18.9846V18.986V18.9875V18.9889V18.9904V18.9919V18.9933V18.9948V18.9962V18.9977V18.9992V19.0006V19.0021V19.0035V19.005V19.0065V19.0079V19.0094V19.0109V19.0123V19.0138V19.0153V19.0167V19.0182V19.0197V19.0212V19.0226V19.0241V19.0256V19.0271V19.0285V19.03V19.0315V19.033V19.0344V19.0359V19.0374V19.0389V19.0403V19.0418V19.0433V19.0448V19.0463V19.0478V19.0492V19.0507V19.0522V19.0537V19.0552V19.0567V19.0581V19.0596V19.0611V19.0626V19.0641V19.0656V19.0671V19.0685V19.07V19.0715V19.073V19.0745V19.076V19.0775V19.079V19.0805V19.082V19.0834V19.0849V19.0864V19.0879V19.0894V19.0909V19.0924V19.0939V19.0954V19.0969V19.0984V19.0999V19.1013V19.1028V19.1043V19.1058V19.1073V19.1088V19.1103V19.1118V19.1133V19.1148V19.1163V19.1178V19.1193V19.1208V19.1222V19.1237V19.1252V19.1267V19.1282V19.1297V19.1312V19.1327V19.1342V19.1357V19.1372V19.1387V19.1402V19.1417V19.1431V19.1446V19.1461V19.1476V19.1491V19.1506V19.1521V19.1536V19.1551V19.1566V19.1581V19.1595V19.161V19.1625V19.164V19.1655V19.167V19.1685V19.17V19.1714V19.1729V19.1744V19.1759V19.1774V19.1789V19.1804V19.1818V19.1833V19.1848V19.1863V19.1878V19.1893V19.1907V19.1922V19.1937V19.1952V19.1967V19.1981V19.1996V19.2011V19.2026V19.2041V19.2055V19.207V19.2085V19.21V19.2114V19.2129V19.2144V19.2158V19.2173V19.2188V19.2203V19.2217V19.2232V19.2247V19.2261V19.2276V19.2291V19.2305V19.232V19.2334V19.2349V19.2364V19.2378V19.2393V19.2407V19.2422V19.2437V19.2451V19.2466V19.248V19.2495V19.2509V19.2524V19.2538V19.2553V19.2567V19.2582V19.2596V19.2611V19.2625V19.264V19.2654V19.2669V19.2683V19.2697V19.2712V19.2726V19.2741V19.2755V19.2769V19.2784V19.2798V19.2812V19.2827V19.2841V19.2855V19.2869V19.2884V19.2898V19.2912V19.2926V19.2941V19.2955V19.2969V19.2983V19.2997V19.3011V19.3026V19.304V19.3054V19.3068V19.3082V19.3096V19.311V19.3124V19.3138V19.3152V19.3166V19.318V19.3193C24.4882 19.8287 24.4446 20.337 24.3695 20.841C24.2885 21.2616 24.152 21.6695 23.9638 22.0543C23.7594 22.4667 23.4914 22.8443 23.1696 23.1733C22.8459 23.4968 22.4701 23.7634 22.0579 23.9621L22.0579 23.962L22.0515 23.9653C21.6689 24.1565 21.2628 24.2964 20.8437 24.3813C20.3335 24.4468 19.8202 24.4864 19.3059 24.5H5.68075C5.17128 24.4882 4.66304 24.4446 4.159 24.3695C3.73842 24.2884 3.33042 24.152 2.94565 23.9638C2.5333 23.7594 2.15568 23.4914 1.82665 23.1695C1.5032 22.8459 1.23657 22.4701 1.03793 22.0579L1.03797 22.0579L1.03474 22.0515C0.843531 21.6689 0.703635 21.2628 0.618659 20.8437C0.553215 20.3334 0.513612 19.8202 0.5 19.3059V19.3059V19.3046V19.3032V19.3019V19.3006V19.2992V19.2979V19.2966V19.2952V19.2939V19.2925V19.2912V19.2899V19.2885V19.2872V19.2858V19.2845V19.2831V19.2817V19.2804V19.279V19.2777V19.2763V19.275V19.2736V19.2722V19.2709V19.2695V19.2681V19.2668V19.2654V19.264V19.2626V19.2613V19.2599V19.2585V19.2571V19.2557V19.2544V19.253V19.2516V19.2502V19.2488V19.2474V19.246V19.2447V19.2433V19.2419V19.2405V19.2391V19.2377V19.2363V19.2349V19.2335V19.2321V19.2307V19.2293V19.2279V19.2265V19.2251V19.2237V19.2223V19.2208V19.2194V19.218V19.2166V19.2152V19.2138V19.2124V19.211V19.2095V19.2081V19.2067V19.2053V19.2039V19.2024V19.201V19.1996V19.1982V19.1968V19.1953V19.1939V19.1925V19.191V19.1896V19.1882V19.1868V19.1853V19.1839V19.1825V19.181V19.1796V19.1782V19.1767V19.1753V19.1739V19.1724V19.171V19.1695V19.1681V19.1667V19.1652V19.1638V19.1623V19.1609V19.1595V19.158V19.1566V19.1551V19.1537V19.1522V19.1508V19.1493V19.1479V19.1464V19.145V19.1435V19.1421V19.1406V19.1392V19.1378V19.1363V19.1348V19.1334V19.1319V19.1305V19.129V19.1276V19.1261V19.1247V19.1232V19.1218V19.1203V19.1189V19.1174V19.116V19.1145V19.1131V19.1116V19.1101V19.1087V19.1072V19.1058V19.1043V19.1029V19.1014V19.1V19.0985V19.097V19.0956V19.0941V19.0927V19.0912V19.0898V19.0883V19.0868V19.0854V19.0839V19.0825V19.081V19.0796V19.0781V19.0766V19.0752V19.0737V19.0723V19.0708V19.0694V19.0679V19.0664V19.065V19.0635V19.0621V19.0606V19.0592V19.0577V19.0563V19.0548V19.0533V19.0519V19.0504V19.049V19.0475V19.0461V19.0446V19.0432V19.0417V19.0403V19.0388V19.0374V19.0359V19.0345V19.033V19.0316V19.0301V19.0287V19.0272V19.0258V19.0243V19.0229V19.0214V19.02V19.0185V19.0171V19.0156V19.0142V19.0127V19.0113V19.0098V19.0084V19.007V19.0055V19.0041V19.0026V19.0012V18.9998V18.9983V18.9969V18.9954V18.994V18.9926V18.9911V18.9897V18.9883V18.9868V18.9854V18.984V18.9825V18.9811V18.9797V18.9783V18.9768V18.9754V18.974V18.9725V18.9711V18.9697V18.9683V18.9668V18.9654V18.964V18.9626V18.9612V18.9597V18.9583V18.9569V18.9555V18.9541V18.9527V18.9513V18.9498V18.9484V18.947V18.9456V18.9442V18.9428V18.9414V18.94V18.9386V18.9372V18.9358V18.9344V18.933V18.9316V18.9302V18.9288V18.9274V18.926V18.9246V18.9232V18.9218V18.9205V18.9191V18.9177V18.9163V18.9149V18.9135V18.9121V18.9108V18.9094V18.908V18.9066V18.9053V18.9039V18.9025V18.9011V18.8998V18.8984V18.897V18.8957V18.8943V18.893V18.8916V18.8902V18.8889V18.8875V18.8862V18.8848V18.8835V18.8821V18.8808V18.8794V18.8781V18.8767V18.8754V18.874V18.8727V18.8714V18.87V18.8687V18.8674V18.866V18.8647V18.8634V18.862V18.8607V18.8594V18.8581V18.8568V18.8554V18.8541V18.8528V18.8515V18.8502V18.8489V18.8476V18.8463V18.845V18.8437V18.8424V18.8411V18.8398V18.8385V18.8372V18.8359V18.8346V18.8333V18.832V18.8307V18.8294V18.8282V18.8269V18.8256V18.8243V18.8231V18.8218V18.8205V18.8193V18.818V18.8167V18.8155V18.8142V18.813V18.8117V18.8105V18.8092V18.808V18.8067V18.8055V18.8042V18.803V18.8018V18.8005V18.7993V18.7981V18.7968V18.7956V18.7944V18.7932V18.7919V18.7907V18.7895V18.7883V18.7871V18.7859V18.7847V18.7835V18.7823V18.7811V18.7799V18.7787V18.7775V18.7763V18.7751V18.7739V18.7728V18.7716V18.7704V18.7692V18.7681V18.7669V18.7657V18.7646V18.7634V18.7622V18.7611V18.7599V18.7588V18.7576V18.7565V18.7553V18.7542V18.753V18.7519V18.7508V18.7496V18.7485V18.7474V18.7463V18.7451V18.744V18.7429V18.7418V18.7407V18.7396V18.7385V18.7374V18.7363V18.7352V18.7341V18.733V18.7319V18.7308V18.7297V18.7287V18.7276V18.7265V18.7254V18.7244V18.7233V18.7223V18.7212V18.7201V18.7191V18.718V18.717V18.7159V18.7149V18.7139V18.7128V18.7118V18.7108V18.7097V18.7087V18.7077V18.7067V18.7057V18.7047V18.7036V18.7026V18.7016V18.7006V18.6996V18.6987V18.6977V18.6967V18.6957V18.6947V18.6937V18.6928V18.6918V18.6908V18.6899V18.6889V18.6879V18.687V18.686V18.6851V18.6841V18.6832V18.6823V18.6813V18.6804V18.6795V18.6785V18.6776V18.6767V18.6758V18.6749V18.674V18.6731V18.6722V18.6713V18.6704V18.6695V18.6686V18.6677V18.6668V18.666V18.6651V18.6642V18.6634V18.6625V18.6616V18.6608V18.6599V18.6591V18.6582V18.6574V18.6566V18.6557V18.6549V18.6541V18.6533V18.6524V18.6516V18.6508V18.65V6.35V5.68075C0.511837 5.17129 0.555421 4.66306 0.630497 4.15902C0.711533 3.73852 0.847909 3.33058 1.03608 2.94587C1.24052 2.53342 1.5086 2.15573 1.83047 1.82664C2.15409 1.5032 2.52988 1.23656 2.94206 1.03793L2.94209 1.03797L2.94855 1.03474C3.3311 0.843531 3.73719 0.703635 4.15629 0.618659C4.66655 0.553215 5.1798 0.513612 5.69406 0.5H19.3192C19.8287 0.511837 20.3369 0.555421 20.841 0.630497C21.2615 0.71153 21.6694 0.847897 22.0541 1.03605C22.4665 1.24049 22.8442 1.50857 23.1733 1.83044C23.4968 2.15407 23.7634 2.52986 23.9621 2.94206ZM12.785 21.75L12.7875 21.25L12.791 21.75C14.661 21.737 16.4853 21.1709 18.0342 20.123C19.5831 19.0752 20.7872 17.5924 21.495 15.8615C22.2028 14.1306 22.3826 12.229 22.0118 10.3961C21.6409 8.56318 20.7359 6.88103 19.4109 5.56147C18.0858 4.24191 16.3999 3.34395 14.5655 2.9807C12.7311 2.61744 10.8302 2.80514 9.10224 3.52013C7.37429 4.23513 5.89656 5.44547 4.85516 6.99869C3.81375 8.55191 3.25526 10.3786 3.25 12.2486H3.24997L3.25002 12.254C3.26264 13.8475 3.68068 15.4104 4.46318 16.7959L3.26714 21.2452L3.04327 22.078L3.87725 21.8585L8.43562 20.659C9.77528 21.3677 11.2674 21.7425 12.785 21.75ZM12.7932 5.33747L13.3344 5.33127L13.3245 5.22158C14.9799 5.35187 16.5421 6.06763 17.7247 7.25025C19.0375 8.56301 19.775 10.3435 19.775 12.2C19.775 14.0565 19.0375 15.837 17.7247 17.1497C16.4125 18.462 14.6328 19.1995 12.777 19.2C11.5462 19.1904 10.3397 18.8565 9.27908 18.2319C9.27897 18.2318 9.27887 18.2317 9.27876 18.2317L9.00437 18.0695L8.82257 17.9621L8.6188 18.0175L6.61355 18.5628L7.13223 16.6696L7.1892 16.4617L7.0771 16.2775L6.9021 15.99L6.90155 15.9891C6.25619 14.9339 5.90198 13.7264 5.87499 12.4897C5.848 11.2531 6.14919 10.0313 6.7479 8.94891C7.34661 7.86648 8.22146 6.96204 9.28337 6.32766C10.3453 5.69328 11.5563 5.35162 12.7932 5.33747Z" fill="black" stroke="white"/>
</svg>
