<svg width="25" height="25" viewBox="0 0 25 25" fill="none" xmlns="http://www.w3.org/2000/svg">
<path d="M25 5.6875C24.986 5.14822 24.9442 4.61001 24.875 4.075C24.7817 3.60641 24.6261 3.15239 24.4125 2.725C24.1891 2.26138 23.889 1.83878 23.525 1.475C23.1576 1.11526 22.7358 0.815739 22.275 0.5875C21.847 0.378055 21.393 0.226717 20.925 0.1375C20.3951 0.0581242 19.8607 0.0122001 19.325 0H5.6875C5.14822 0.0140455 4.61001 0.055767 4.075 0.125C3.60641 0.218335 3.15239 0.373879 2.725 0.5875C2.26138 0.810921 1.83878 1.11097 1.475 1.475C1.11526 1.84239 0.815739 2.26424 0.5875 2.725C0.378055 3.15295 0.226717 3.60697 0.1375 4.075C0.0581242 4.60492 0.0122001 5.13931 0 5.675C0 5.9125 0 6.25 0 6.35V18.65C0 18.7875 0 19.0875 0 19.3125C0.0140455 19.8518 0.055767 20.39 0.125 20.925C0.218335 21.3936 0.373879 21.8476 0.5875 22.275C0.810921 22.7386 1.11097 23.1612 1.475 23.525C1.84239 23.8847 2.26424 24.1843 2.725 24.4125C3.15295 24.6219 3.60697 24.7733 4.075 24.8625C4.60492 24.9419 5.13931 24.9878 5.675 25H19.3125C19.8518 24.986 20.39 24.9442 20.925 24.875C21.3936 24.7817 21.8476 24.6261 22.275 24.4125C22.7386 24.1891 23.1612 23.889 23.525 23.525C23.8847 23.1576 24.1843 22.7358 24.4125 22.275C24.6219 21.847 24.7733 21.393 24.8625 20.925C24.9419 20.3951 24.9878 19.8607 25 19.325C25 19.0875 25 18.7875 25 18.65V6.35C25 6.25 25 5.9125 25 5.6875ZM12.7875 21.25C11.2863 21.2426 9.81142 20.8556 8.5 20.125L3.75 21.375L5 16.725C4.19389 15.3706 3.76248 13.8261 3.75 12.25C3.75498 10.4787 4.284 8.74839 5.27045 7.27713C6.2569 5.80587 7.65665 4.65941 9.29341 3.98214C10.9302 3.30488 12.7307 3.12709 14.4684 3.47117C16.206 3.81526 17.8029 4.66583 19.058 5.91575C20.3132 7.16568 21.1704 8.75907 21.5217 10.4952C21.873 12.2314 21.7027 14.0327 21.0322 15.6723C20.3618 17.3118 19.2211 18.7163 17.754 19.7089C16.2869 20.7014 14.5588 21.2377 12.7875 21.25V21.25ZM12.7875 4.8375C11.4623 4.85267 10.1647 5.21873 9.02695 5.89842C7.88918 6.57811 6.95185 7.54716 6.31037 8.7069C5.66889 9.86664 5.34619 11.1756 5.37511 12.5007C5.40402 13.8257 5.78354 15.1194 6.475 16.25L6.65 16.5375L5.9 19.275L8.75 18.5L9.025 18.6625C10.162 19.3322 11.4555 19.6901 12.775 19.7V19.7C14.7641 19.7 16.6718 18.9098 18.0783 17.5033C19.4848 16.0968 20.275 14.1891 20.275 12.2C20.275 10.2109 19.4848 8.30322 18.0783 6.8967C16.6718 5.49018 14.7641 4.7 12.775 4.7L12.7875 4.8375ZM17.1625 15.4875C16.9988 15.7606 16.7796 15.9963 16.519 16.1793C16.2585 16.3623 15.9624 16.4886 15.65 16.55C15.1832 16.6353 14.7026 16.6053 14.25 16.4625C13.8242 16.3294 13.4068 16.1708 13 15.9875C11.4547 15.2121 10.1368 14.0492 9.175 12.6125C8.65235 11.9468 8.33523 11.1432 8.2625 10.3C8.25506 9.94974 8.32132 9.60182 8.45698 9.27881C8.59264 8.9558 8.79469 8.66491 9.05 8.425C9.1252 8.33973 9.21747 8.2712 9.32082 8.22383C9.42417 8.17646 9.53632 8.15131 9.65 8.15H10C10.1375 8.15 10.325 8.15 10.5 8.5375C10.675 8.925 11.1375 10.0875 11.2 10.2C11.2307 10.26 11.2467 10.3264 11.2467 10.3937C11.2467 10.4611 11.2307 10.5275 11.2 10.5875C11.1447 10.7233 11.0688 10.8498 10.975 10.9625C10.8625 11.1 10.7375 11.2625 10.6375 11.3625C10.5375 11.4625 10.4125 11.5875 10.5375 11.8125C10.8776 12.3865 11.2986 12.9085 11.7875 13.3625C12.3199 13.8329 12.9286 14.2092 13.5875 14.475C13.8125 14.5875 13.95 14.575 14.075 14.475C14.2 14.375 14.6375 13.825 14.7875 13.6C14.9375 13.375 15.0875 13.4125 15.2875 13.4875C15.4875 13.5625 16.6 14.1 16.825 14.2125C17.05 14.325 17.1875 14.375 17.25 14.475C17.3042 14.8022 17.2741 15.1377 17.1625 15.45V15.4875Z" fill="white"/>
</svg>
